<svg xmlns="http://www.w3.org/2000/svg" width="332.001" height="286.134" viewBox="0 0 332.001 286.134">
  <g id="Grupo_85419" data-name="Grupo 85419" transform="translate(-2212.539 -787.011)">
    <rect id="Rectángulo_6946" data-name="Rectángulo 6946" width="166.006" height="267.95" transform="translate(2212.539 802.654)" fill="#f8f7ef"/>
    <path id="Trazado_130737" data-name="Trazado 130737" d="M2373.36,822.082H2219.715a1.434,1.434,0,0,1,0-2.868H2373.36a1.434,1.434,0,0,1,0,2.868Z" transform="translate(1.431 8.028)" fill="#ecedcc"/>
    <path id="Trazado_130738" data-name="Trazado 130738" d="M2396.6,804.974c-1.99-5.787-7.869-9.426-12.478-9.315a3.586,3.586,0,0,1-3.042-1.549c-1.651-2.4-5.435-6.338-12.767-6.991-10.687-.953-20.049,4.462-24.356,12.308a3.6,3.6,0,0,1-3.171,1.864c-3,0-8.415,1.091-11.861,8.258-4.338,9.027,1.888,23.345,1.888,23.345a1.478,1.478,0,0,1,1.538,1.092c.921,3.6,4.035,16.633,5.083,18.257,5.169,8,45.528,13.484,50.508-2.965.71-2.342,2.5-12.418,3.159-15.38a1.477,1.477,0,0,1,1.5-1.134l1.517.047-.044-9.883a3.578,3.578,0,0,1,.441-1.742C2395.761,818.935,2399.022,812.005,2396.6,804.974Z" transform="translate(28.631)" fill="#441e2d"/>
    <path id="Trazado_130739" data-name="Trazado 130739" d="M2396.688,827.318c-2.761-1.981-8.346-.718-8.346-.718l-.057.1a.84.84,0,0,1-1.562-.352l-1.006-11.832a2.868,2.868,0,0,0-3.657-2.455c-3.388.931-9.7,1.909-20.484,1.229a118.331,118.331,0,0,1-12.753-1.338s-8.557,3.293-10.119,14.363a.839.839,0,0,1-1.563.286s-5.586-1.263-8.346.718c-4.735,3.4-4.846,12.484,2.3,17.464a17.661,17.661,0,0,0,7.308,3.281c1.037,6.249,6.764,24.313,24.314,24.313,17.14,0,23.262-18.047,24.311-24.3a17.537,17.537,0,0,0,7.371-3.289C2401.534,839.8,2401.423,830.716,2396.688,827.318Z" transform="translate(28.147 6.217)" fill="#ffb6b6"/>
    <g id="Grupo_85412" data-name="Grupo 85412" transform="translate(2227.903 810.843)">
      <circle id="Elipse_7995" data-name="Elipse 7995" cx="4.184" cy="4.184" r="4.184" transform="translate(0 0)" fill="#ecedcc"/>
      <circle id="Elipse_7996" data-name="Elipse 7996" cx="4.184" cy="4.184" r="4.184" transform="translate(17.374 0)" fill="#ecedcc"/>
      <path id="Trazado_130740" data-name="Trazado 130740" d="M2261.021,810.273a4.184,4.184,0,1,1-4.184-4.185A4.185,4.185,0,0,1,2261.021,810.273Z" transform="translate(-2217.904 -806.088)" fill="#ecedcc"/>
    </g>
    <path id="Trazado_130741" data-name="Trazado 130741" d="M2514.469,970.284l-13.909-58.932-19.992,14.483c-6.566-22.5-10.89-40.4-16.773-45.146-9.383-7.576-61.212-16.45-61.819-16.644h-40.238c-.607.194-52.435,9.069-61.819,16.644-5.832,4.707-10.133,22.341-16.606,44.577l-19.206-13.913L2250.2,970.284c1.63,14.5,22.9,46.708,29.705,50.252,7.591,3.95,19.185,7.368,33.805,5.351l-1.855,26.621H2451.86L2450,1025.887c14.4,1.653,25.872.615,32.26-4.431C2494.124,1012.084,2512.8,985.307,2514.469,970.284Z" transform="translate(9.388 19.203)" fill="#441e2d"/>
    <path id="Trazado_130742" data-name="Trazado 130742" d="M2336.815,836.932a1.432,1.432,0,0,1-.943-.355l-5.7-4.981a1.434,1.434,0,0,1,1.886-2.161l5.7,4.982a1.435,1.435,0,0,1-.944,2.515Z" transform="translate(29.2 10.487)" fill="#441e2d"/>
    <path id="Trazado_130743" data-name="Trazado 130743" d="M2375.4,836.932a1.435,1.435,0,0,1-.945-2.515l5.7-4.982a1.434,1.434,0,1,1,1.886,2.161l-5.7,4.981A1.432,1.432,0,0,1,2375.4,836.932Z" transform="translate(40.239 10.487)" fill="#441e2d"/>
    <path id="Trazado_130744" data-name="Trazado 130744" d="M2385.045,870.885l-1.98-14.068V840.232h-43.917V856.2l-2,12.962-5.544,5.8,13.931,29.235,16.775-19.078,15.347,19.078,13.017-30.586Z" transform="translate(29.679 13.267)" fill="#ffb6b6"/>
    <path id="Trazado_130745" data-name="Trazado 130745" d="M2372.581,825.646a1.428,1.428,0,0,1-.667-.166c-6.126-3.222-10.455-.234-10.638-.1a1.434,1.434,0,0,1-1.684-2.323c.237-.172,5.9-4.193,13.657-.111a1.435,1.435,0,0,1-.668,2.7Z" transform="translate(36.511 8.502)" fill="#441e2d"/>
    <path id="Trazado_130746" data-name="Trazado 130746" d="M2358.1,848.355a1.425,1.425,0,0,1-.844-.275l-2.848-2.075a7,7,0,0,1-2.531-7.955c.036-.1.076-.209.12-.314l2.453-5.944a5.4,5.4,0,0,0-2.023-7.022c-5.988-3.133-9.9.452-10.059.606a1.434,1.434,0,0,1-1.989-2.066c.222-.215,5.522-5.212,13.41-1.064a8.268,8.268,0,0,1,3.313,10.641l-2.454,5.944c-.025.06-.048.122-.071.185a4.122,4.122,0,0,0,1.519,4.671l2.849,2.075a1.434,1.434,0,0,1-.845,2.594Z" transform="translate(31.759 8.374)" fill="#441e2d"/>
    <path id="Trazado_130747" data-name="Trazado 130747" d="M2356.938,849.3a11.891,11.891,0,0,1-7.829-2.892,1.435,1.435,0,0,1,1.849-2.194c5.573,4.7,11.932.484,12,.441a1.434,1.434,0,1,1,1.61,2.372A14.24,14.24,0,0,1,2356.938,849.3Z" transform="translate(33.917 14.175)" fill="#441e2d"/>
    <path id="Trazado_130748" data-name="Trazado 130748" d="M2385.045,867.7l-1.982-14.068s-6.95,17.2-21.711,17.2c-17.445,0-22.206-17.818-22.206-17.818l-2,12.961-5.545,5.8,13.932,29.234,16.775-19.078,15.346,19.078,13.018-30.586Z" transform="translate(29.679 16.452)" fill="#fff"/>
    <path id="Trazado_130749" data-name="Trazado 130749" d="M2337.927,856.208a1.435,1.435,0,0,1-1.434-1.434v-7.406a1.434,1.434,0,0,1,2.869,0v7.406A1.434,1.434,0,0,1,2337.927,856.208Z" transform="translate(30.899 14.688)" fill="#441e2d"/>
    <path id="Trazado_130750" data-name="Trazado 130750" d="M2373.081,856.8a1.433,1.433,0,0,1-1.434-1.433v-7.9a1.434,1.434,0,1,1,2.868,0v7.9A1.433,1.433,0,0,1,2373.081,856.8Z" transform="translate(39.662 14.714)" fill="#441e2d"/>
    <path id="Trazado_130751" data-name="Trazado 130751" d="M2356.444,878.557a1.434,1.434,0,0,1-1.434-1.434v-5.754a1.434,1.434,0,1,1,2.868,0v5.754A1.434,1.434,0,0,1,2356.444,878.557Z" transform="translate(35.515 20.671)" fill="#441e2d"/>
    <path id="Trazado_130752" data-name="Trazado 130752" d="M2434.664,848.957a1.433,1.433,0,0,1-1.206-2.206l10.26-16.064a1.434,1.434,0,0,1,2.417,1.544l-10.262,16.064A1.43,1.43,0,0,1,2434.664,848.957Z" transform="translate(55.013 10.722)" fill="#441e2d"/>
    <path id="Trazado_130753" data-name="Trazado 130753" d="M2450.144,861.769a1.434,1.434,0,0,1-.477-2.786l14.915-5.281a1.434,1.434,0,1,1,.958,2.7l-14.917,5.281A1.429,1.429,0,0,1,2450.144,861.769Z" transform="translate(58.872 16.604)" fill="#441e2d"/>
    <path id="Trazado_130754" data-name="Trazado 130754" d="M2415.94,846.13a1.435,1.435,0,0,1-1.412-1.194l-2.929-17.219a1.434,1.434,0,1,1,2.827-.481l2.931,17.219a1.441,1.441,0,0,1-1.417,1.675Z" transform="translate(49.616 9.73)" fill="#441e2d"/>
    <path id="Trazado_130755" data-name="Trazado 130755" d="M2345.609,817.93a1.432,1.432,0,0,1-1.368-1.009l-3.026-9.739a1.434,1.434,0,0,1,2.739-.851l3.026,9.739a1.436,1.436,0,0,1-1.371,1.86Z" transform="translate(32.06 4.564)" fill="#ffb6b6"/>
    <path id="Trazado_130756" data-name="Trazado 130756" d="M2299.835,1046.009a1.435,1.435,0,0,1-1.433-1.448l1.5-147.269a1.434,1.434,0,0,1,2.868.029l-1.5,147.269A1.433,1.433,0,0,1,2299.835,1046.009Z" transform="translate(21.404 27.136)" fill="#fff"/>
    <path id="Trazado_130757" data-name="Trazado 130757" d="M2411.473,1046.009a1.433,1.433,0,0,1-1.433-1.419l-1.5-147.27a1.434,1.434,0,0,1,2.868-.029l1.5,147.269a1.434,1.434,0,0,1-1.421,1.448Z" transform="translate(48.858 27.136)" fill="#fff"/>
    <path id="Trazado_130758" data-name="Trazado 130758" d="M2280.555,872.965a21.726,21.726,0,0,0,3.487,11.834,27.773,27.773,0,0,1,3.949,9.988h-42.342v113.469h113.469l-.005-42.345a27.746,27.746,0,0,0-9.988,3.948,21.828,21.828,0,1,1-.157-36.782,29.268,29.268,0,0,0,10.145,4.031V894.787h-42.319a29.215,29.215,0,0,1,4.031-10.145,21.829,21.829,0,1,0-40.27-11.677Z" transform="translate(8.254 15.983)" fill="#fee45a"/>
    <path id="Trazado_130759" data-name="Trazado 130759" d="M2497.705,1006.494h-113.47V964.152a27.765,27.765,0,0,0-9.988,3.948,21.828,21.828,0,1,1-.157-36.782,29.237,29.237,0,0,0,10.145,4.031V893.025h42.342a27.769,27.769,0,0,0-3.949-9.988,21.829,21.829,0,1,1,36.783-.157,29.214,29.214,0,0,0-4.031,10.145h42.324Z" transform="translate(31.917 15.544)" fill="#a0a603"/>
    <g id="Grupo_85414" data-name="Grupo 85414" transform="translate(2238.506 916.677)">
      <g id="Grupo_85413" data-name="Grupo 85413">
        <path id="Trazado_130760" data-name="Trazado 130760" d="M2270.288,917.514c-2.352-.466-8.723-1.212-14.157-1.806a1.438,1.438,0,0,1-.807-2.5c.576-.52,1.359-1.157,3.223-2.719,6.22-5.213,13.9-12.936,11.039-16.839-2.044-2.791-6.749-1.728-9.6.286s-12.5,8.4-16.094,11.546-4.625,10.83-4.625,10.83-2.1,2.827-2.317,5.208c-.481,5.183.922,6.585.922,6.585s-1.823.79-3.149,4.611c-1.077,3.107,1.606,8.586,1.606,8.586a15.052,15.052,0,0,0-.967,8.032c.626,4.828,13.219,13.989,13.219,13.989l.388-8.15s14.65-1.178,14.988-7.433c.25-4.61-10.518-5.75-10.518-5.75,12.622-.687,19.772-3.864,18.583-8.356s-9.532-4.913-9.532-4.913c7.06-.194,10.569-2.376,11.176-4.357S2274.7,918.387,2270.288,917.514Z" transform="translate(-2233.039 -890.516)" fill="#ffb6b6"/>
        <path id="Trazado_130761" data-name="Trazado 130761" d="M2248.868,965.048a1.436,1.436,0,0,1-.843-.275c-.131-.095-3.246-2.367-6.489-5.276-4.608-4.134-7-7.3-7.308-9.688a17.3,17.3,0,0,1,.823-8.185c-.732-1.653-2.445-6.064-1.4-9.087a11.358,11.358,0,0,1,2.672-4.541,14.337,14.337,0,0,1-.518-6.318,13.482,13.482,0,0,1,2.378-5.627c.263-1.638,1.521-8.274,5.05-11.358,2.811-2.457,9.088-6.751,13.242-9.592,1.237-.846,2.3-1.577,2.968-2.045,3.742-2.646,9.1-3.354,11.581.036,2.812,3.839-.981,10.16-11.275,18.787-.561.47-1.024.857-1.414,1.182-.894.746-1.387,1.157-1.769,1.5,7.512.828,12.317,1.443,14.282,1.833a5.816,5.816,0,0,1,4.09,2.648c1.33,2.225.711,4.957.384,6.029-.479,1.562-2.145,3.223-5.379,4.28a6.809,6.809,0,0,1,3.748,4.2,4.913,4.913,0,0,1-.822,4.272c-1.968,2.706-6.453,4.216-11.28,5.048,2.319,1.1,4.217,2.757,4.084,5.231-.342,6.326-11.123,8.188-15.046,8.656l-.33,6.917a1.436,1.436,0,0,1-1.433,1.367ZM2238.754,929.7c-.18.11-1.408.944-2.388,3.773-.721,2.075.911,6.2,1.539,7.486a1.434,1.434,0,0,1,0,1.269,13.873,13.873,0,0,0-.83,7.208c.342,2.634,5.954,7.818,10.494,11.387l.26-5.432a1.434,1.434,0,0,1,1.318-1.362c3.475-.281,13.45-2,13.67-6.08.12-2.21-5.442-3.84-9.239-4.246a1.434,1.434,0,0,1,.074-2.858c8.791-.479,15.111-2.239,16.906-4.706a2.059,2.059,0,0,0,.369-1.851c-.75-2.828-6.325-3.749-8.219-3.849a1.434,1.434,0,0,1,.033-2.866c6.526-.179,9.464-2.1,9.845-3.343.168-.551.66-2.445-.1-3.716a3.047,3.047,0,0,0-2.187-1.308c-1.857-.369-6.71-.987-14.033-1.788a2.873,2.873,0,0,1-1.613-4.987c.423-.382.931-.806,1.855-1.575.387-.324.849-.71,1.407-1.178,8.173-6.849,12.414-12.7,10.8-14.893-1.483-2.024-5.442-.924-7.612.61-.682.482-1.757,1.219-3,2.071-4.1,2.8-10.29,7.038-12.974,9.385-2.593,2.266-3.863,7.877-4.143,9.9a1.438,1.438,0,0,1-.275.7,11.39,11.39,0,0,0-2.041,4.486c-.354,3.81.394,5.227.545,5.468a1.287,1.287,0,0,1,.481,1.258A1.341,1.341,0,0,1,2238.754,929.7Z" transform="translate(-2233.324 -890.804)" fill="#441e2d"/>
        <path id="Trazado_130762" data-name="Trazado 130762" d="M2254.418,912.827c-.029,0-.058,0-.086,0l-11.636-.69a1.434,1.434,0,0,1,.17-2.863l11.636.69a1.434,1.434,0,0,1-.083,2.866Z" transform="translate(-2231.325 -886.201)" fill="#441e2d"/>
        <path id="Trazado_130763" data-name="Trazado 130763" d="M2247.608,944.383c-.027,0-.056,0-.085,0l-5.228-.309a1.434,1.434,0,0,1,.17-2.863l5.227.31a1.434,1.434,0,0,1-.084,2.865Z" transform="translate(-2231.425 -878.24)" fill="#441e2d"/>
      </g>
      <path id="Trazado_130764" data-name="Trazado 130764" d="M2262.1,923.229l-24.654-.613a1.434,1.434,0,1,1,.073-2.867l24.617.613a1.434,1.434,0,0,1-.035,2.867Z" transform="translate(-2232.646 -883.589)" fill="#441e2d"/>
      <path id="Trazado_130765" data-name="Trazado 130765" d="M2253.357,933.866c-.059,0-17.169-.688-17.169-.688a1.434,1.434,0,1,1,.115-2.866l17.11.687a1.434,1.434,0,0,1-.056,2.867Z" transform="translate(-2232.954 -880.956)" fill="#441e2d"/>
    </g>
    <g id="Grupo_85416" data-name="Grupo 85416" transform="translate(2500.793 931.962)">
      <g id="Grupo_85415" data-name="Grupo 85415">
        <path id="Trazado_130766" data-name="Trazado 130766" d="M2485.05,929.671c-1.325-3.822-3.148-4.611-3.148-4.611s1.4-1.4.921-6.585a11.537,11.537,0,0,0-1.871-4.552c.035-.022.07-.044.1-.069,1.734-1.3,1-4.029-.086-5.486-3.094-4.134-9.371-4.03-14.01-4.153a78.768,78.768,0,0,0-8.757.242,21.292,21.292,0,0,0-6.93,1.364c-2.1.937-4.165,3.056-3.7,5.547a3.841,3.841,0,0,0,2.874,2.927c-.366.059-.689.116-.958.17-4.41.873-5.652,4.366-4.826,7.243.8,2.788,5.562,3.771,12.621,3.964,0,0-9.906-.306-9.649,6.129.185,4.644,6.078,6.455,18.7,7.142,0,0-14.062-.155-13.865,4.458.3,7.173,18.334,8.726,18.334,8.726l.39,8.15s12.591-9.161,13.219-13.989a15.046,15.046,0,0,0-.967-8.032S2486.127,932.778,2485.05,929.671Z" transform="translate(-2442.99 -902.753)" fill="#ffb6b6"/>
        <path id="Trazado_130767" data-name="Trazado 130767" d="M2471.479,962a1.434,1.434,0,0,1-1.433-1.367l-.33-6.919c-4.5-.527-18.086-2.716-18.394-9.964a3.659,3.659,0,0,1,1.091-2.74,7.573,7.573,0,0,1,2.77-1.654,23.844,23.844,0,0,1-3.067-.864c-3.67-1.337-5.512-3.412-5.628-6.345a6.056,6.056,0,0,1,1.763-4.688,7.179,7.179,0,0,1,1.109-.908c-2.912-.687-5.147-1.92-5.789-4.157a7.118,7.118,0,0,1,.691-5.664,6.989,6.989,0,0,1,3.114-2.709,4.782,4.782,0,0,1-.927-2.1c-.6-3.232,1.923-5.955,4.525-7.118a22.1,22.1,0,0,1,7.314-1.478l.079-.006a80.628,80.628,0,0,1,8.916-.246l.81.019c4.634.106,10.977.252,14.311,4.707,1.265,1.692,2.112,4.634.646,6.641a11.106,11.106,0,0,1,1.488,4.193,14.334,14.334,0,0,1-.517,6.318,11.384,11.384,0,0,1,2.672,4.541c1.049,3.023-.665,7.434-1.4,9.087a17.3,17.3,0,0,1,.824,8.185c-.31,2.385-2.7,5.554-7.308,9.688-3.244,2.908-6.358,5.181-6.489,5.276A1.436,1.436,0,0,1,2471.479,962Zm-5.229-21.335c-3.822,0-10.105.617-11.777,2.342a.792.792,0,0,0-.285.622c.2,4.82,12.674,6.98,17.025,7.357a1.435,1.435,0,0,1,1.309,1.36l.259,5.432c4.541-3.57,10.153-8.756,10.494-11.387a13.867,13.867,0,0,0-.832-7.214,1.445,1.445,0,0,1,0-1.263c.934-1.915,2.179-5.64,1.539-7.486-.982-2.828-2.21-3.664-2.389-3.773a1.345,1.345,0,0,1-.938-1.034,1.288,1.288,0,0,1,.482-1.258c.15-.241.9-1.658.543-5.468a9.785,9.785,0,0,0-1.649-3.908,1.435,1.435,0,0,1,.415-1.973c.9-.7.39-2.525-.34-3.5-2.5-3.337-7.811-3.459-12.079-3.557l-.821-.02a77.641,77.641,0,0,0-8.6.237l-.079.006a19.957,19.957,0,0,0-6.387,1.239c-1.66.741-3.181,2.344-2.877,3.973.137.736.521,1.33,1.948,1.839a1.434,1.434,0,0,1-.251,2.766c-.361.06-.668.114-.911.162a4.837,4.837,0,0,0-3.344,2.063,4.254,4.254,0,0,0-.382,3.379c.346,1.2,2.581,2.686,11.264,2.925a1.434,1.434,0,0,1-.021,2.868c-1.478-.038-5.486.266-7.286,2.086a3.258,3.258,0,0,0-.931,2.552c.136,3.432,5.162,5.1,17.345,5.767a1.434,1.434,0,0,1-.077,2.866Z" transform="translate(-2443.276 -903.039)" fill="#441e2d"/>
        <path id="Trazado_130768" data-name="Trazado 130768" d="M2449.529,914.23a1.434,1.434,0,0,1-.054-2.867l30.134-1.162a1.434,1.434,0,0,1,.11,2.866l-30.134,1.163Z" transform="translate(-2442.074 -901.254)" fill="#441e2d"/>
        <path id="Trazado_130769" data-name="Trazado 130769" d="M2465.624,944.383a1.434,1.434,0,0,1-.083-2.865l5.228-.31a1.434,1.434,0,0,1,.17,2.863l-5.228.309C2465.681,944.383,2465.653,944.383,2465.624,944.383Z" transform="translate(-2438.062 -893.525)" fill="#441e2d"/>
      </g>
      <path id="Trazado_130770" data-name="Trazado 130770" d="M2455,923.229a1.434,1.434,0,0,1-.035-2.867l24.618-.613a1.434,1.434,0,1,1,.071,2.867l-24.618.613Z" transform="translate(-2440.709 -898.874)" fill="#441e2d"/>
      <path id="Trazado_130771" data-name="Trazado 130771" d="M2462.247,933.866a1.434,1.434,0,0,1-.056-2.867l17.109-.687a1.434,1.434,0,0,1,.116,2.866l-17.11.687Z" transform="translate(-2438.904 -896.241)" fill="#441e2d"/>
    </g>
    <path id="Trazado_130772" data-name="Trazado 130772" d="M2360.406,889.832a3.542,3.542,0,1,1-3.542-3.542A3.542,3.542,0,0,1,2360.406,889.832Z" transform="translate(35.094 24.748)" fill="#fff"/>
    <path id="Trazado_130773" data-name="Trazado 130773" d="M2360.406,903.888a3.542,3.542,0,1,1-3.542-3.542A3.541,3.541,0,0,1,2360.406,903.888Z" transform="translate(35.094 28.252)" fill="#fff"/>
    <path id="Trazado_130774" data-name="Trazado 130774" d="M2377.938,902.728a1.432,1.432,0,0,1-1.116-.536l-14.278-17.748-15.65,17.8a1.433,1.433,0,0,1-2.371-.33l-13.932-29.234a1.434,1.434,0,0,1,.257-1.608l5.233-5.477,1.935-12.515a1.434,1.434,0,0,1,2.8-.151,27.74,27.74,0,0,0,4.377,8.49,19.812,19.812,0,0,0,16.443,8.264c13.6,0,20.316-16.138,20.382-16.3a1.434,1.434,0,0,1,2.75.337l1.874,13.311,4.936,2.39a1.435,1.435,0,0,1,.695,1.853l-13.017,30.585a1.431,1.431,0,0,1-1.122.86A1.514,1.514,0,0,1,2377.938,902.728Zm-44.333-30.392,12.57,26.378,15.34-17.445a1.433,1.433,0,0,1,2.194.047l13.847,17.214L2389.1,871.4l-4.4-2.128a1.437,1.437,0,0,1-.794-1.091l-1.353-9.607a38.318,38.318,0,0,1-3.425,4.855c-4.97,5.963-11.019,9.115-17.494,9.115a22.842,22.842,0,0,1-18.788-9.478,30.581,30.581,0,0,1-2.79-4.45l-1.214,7.857a1.433,1.433,0,0,1-.38.771Z" transform="translate(29.393 16.166)" fill="#441e2d"/>
    <g id="Grupo_85417" data-name="Grupo 85417" transform="translate(2400.648 836.703)">
      <path id="Trazado_130775" data-name="Trazado 130775" d="M2365.143,833.027a2.068,2.068,0,0,0,1.88-1.809,7.4,7.4,0,0,0,.1-2.387c-.15-1.259-.8-2-1.771-2.041-.047,0-.1,0-.147,0a1.819,1.819,0,0,0-1.358.661,4.209,4.209,0,0,0-.706,2.964,3.443,3.443,0,0,0,.888,2.089,1.7,1.7,0,0,0,1.112.523Z" transform="translate(-2363.113 -826.788)" fill="#441e2d"/>
    </g>
    <g id="Grupo_85418" data-name="Grupo 85418" transform="translate(2377.004 836.703)">
      <path id="Trazado_130776" data-name="Trazado 130776" d="M2346.222,833.027a2.068,2.068,0,0,1-1.881-1.809,7.439,7.439,0,0,1-.1-2.387c.151-1.259.8-2,1.771-2.041.049,0,.1,0,.149,0a1.819,1.819,0,0,1,1.358.661,4.212,4.212,0,0,1,.7,2.964,3.443,3.443,0,0,1-.887,2.089,1.7,1.7,0,0,1-1.113.523Z" transform="translate(-2344.187 -826.788)" fill="#441e2d"/>
    </g>
    <path id="Trazado_130777" data-name="Trazado 130777" d="M2363,871.254c-7.938,0-14.688-3.6-19.519-10.418a39.008,39.008,0,0,1-6.028-14.112,20.734,20.734,0,0,1-6.9-3.322,13.937,13.937,0,0,1-6.251-11.336,10.217,10.217,0,0,1,3.94-8.47c3.193-2.291,8.864-1.1,9.5-.951a1.434,1.434,0,0,1-.632,2.8c-1.383-.31-5.369-.826-7.2.485a7.356,7.356,0,0,0-2.745,6.119,11.1,11.1,0,0,0,5.024,9,16.269,16.269,0,0,0,6.7,3.038,1.436,1.436,0,0,1,1.2,1.184,36.011,36.011,0,0,0,5.719,13.9c4.331,6.11,10.11,9.208,17.179,9.208,6.906,0,12.634-3.1,17.025-9.208a35.985,35.985,0,0,0,5.871-13.9,1.433,1.433,0,0,1,1.212-1.183,16.142,16.142,0,0,0,6.752-3.046,11.109,11.109,0,0,0,5.025-9,7.357,7.357,0,0,0-2.745-6.119c-1.826-1.312-5.814-.795-7.2-.485a1.434,1.434,0,0,1-.632-2.8c.636-.145,6.308-1.341,9.5.951a10.22,10.22,0,0,1,3.94,8.47A13.935,13.935,0,0,1,2395.5,843.4a20.576,20.576,0,0,1-6.966,3.339,38.866,38.866,0,0,1-6.181,14.109C2377.462,867.656,2370.768,871.254,2363,871.254Z" transform="translate(27.86 8.773)" fill="#441e2d"/>
    <path id="Trazado_130778" data-name="Trazado 130778" d="M2375.024,847.457a1.445,1.445,0,0,1-1.434-1.489l.938-24.418a1.434,1.434,0,0,1,2.866.11l-.938,24.42A1.434,1.434,0,0,1,2375.024,847.457Z" transform="translate(40.146 8.266)" fill="#441e2d"/>
    <path id="Trazado_130779" data-name="Trazado 130779" d="M2336.323,847.448a1.434,1.434,0,0,1-1.43-1.368l-1.122-24.41a1.434,1.434,0,1,1,2.865-.132l1.122,24.411a1.434,1.434,0,0,1-1.367,1.5Z" transform="translate(30.22 8.266)" fill="#441e2d"/>
  </g>
</svg>
